<svg xmlns="http://www.w3.org/2000/svg" xmlns:xlink="http://www.w3.org/1999/xlink" width="500" zoomAndPan="magnify" viewBox="0 0 375 374.999991" height="500" preserveAspectRatio="xMidYMid meet" version="1.0"><defs><g/></defs><g fill="#ffbf49" fill-opacity="1"><g transform="translate(48.034381, 245.551933)"><g><path d="M 82.933594 -1.976562 C 75.339844 -18.835938 67.136719 -35.542969 59.542969 -52.707031 C 71.695312 -57.113281 81.871094 -66.835938 81.871094 -85.367188 C 81.871094 -121.210938 47.695312 -121.515625 40.859375 -121.515625 L 1.519531 -121.515625 C 0.757812 -121.515625 0 -120.757812 0 -120.148438 L 0 -99.492188 L 40.859375 -99.492188 C 44.503906 -99.492188 58.785156 -98.730469 58.785156 -85.367188 C 58.785156 -72 45.871094 -71.390625 40.859375 -71.390625 L 0 -71.390625 L 0 -1.367188 C 0 -0.757812 0.757812 0 1.519531 0 L 21.417969 0 C 22.328125 0 23.089844 -0.757812 23.089844 -1.367188 L 23.089844 -49.0625 L 36.152344 -49.0625 L 58.328125 -0.910156 C 58.480469 -0.457031 59.390625 0 59.847656 0 L 81.566406 0 C 82.78125 0 83.390625 -0.910156 82.933594 -1.976562 Z M 82.933594 -1.976562 "/></g></g></g><g fill="#ffbf49" fill-opacity="1"><g transform="translate(152.070812, 245.551933)"><g><path d="M 59.238281 -85.367188 C 59.238281 -72 41.316406 -72 41.316406 -72 L 23.089844 -72 L 23.089844 -99.796875 L 41.316406 -99.796875 C 41.316406 -99.796875 59.238281 -99.949219 59.238281 -85.367188 Z M 82.480469 -86.730469 C 82.480469 -122.429688 41.316406 -121.515625 41.316406 -121.515625 L 1.671875 -121.515625 C 0.757812 -121.515625 0 -120.757812 0 -120.148438 L 0 -49.367188 L 41.316406 -49.367188 C 41.316406 -49.367188 60.910156 -50.277344 60.910156 -36 C 60.910156 -24.304688 48.910156 -22.175781 41.316406 -22.175781 L 23.238281 -22.175781 L 23.238281 0 L 41.316406 0 C 49.519531 0 84.148438 -1.519531 84.148438 -35.390625 C 84.148438 -35.390625 84.910156 -54.226562 65.617188 -60.757812 C 74.882812 -64.554688 82.480469 -72.605469 82.480469 -86.730469 Z M 82.480469 -86.730469 "/></g></g></g><g fill="#ffbf49" fill-opacity="1"><g transform="translate(257.170374, 245.551933)"><g><path d="M 55.746094 -67.441406 C 47.085938 -71.542969 38.582031 -71.542969 37.820312 -71.542969 C 30.074219 -71.542969 22.632812 -76.101562 22.632812 -84.910156 C 22.632812 -94.632812 29.46875 -99.644531 37.820312 -99.644531 C 45.71875 -99.644531 52.402344 -95.542969 52.707031 -86.882812 C 52.707031 -86.429688 53.46875 -85.667969 54.378906 -85.667969 L 73.367188 -85.667969 C 74.429688 -85.667969 75.1875 -86.429688 75.035156 -86.882812 C 74.734375 -107.542969 58.632812 -121.515625 37.820312 -121.515625 C 18.378906 -121.515625 0 -107.695312 0 -84.910156 C 0 -70.785156 7.140625 -60 19.746094 -54.226562 C 28.554688 -50.125 36.757812 -50.125 37.820312 -50.125 C 44.65625 -49.820312 53.011719 -44.355469 53.011719 -35.390625 C 53.011719 -27.339844 45.871094 -21.871094 37.820312 -21.871094 C 37.820312 -21.871094 37.820312 -21.871094 37.671875 -21.871094 L 37.671875 0 C 37.820312 0 37.820312 0 37.820312 0 C 57.265625 0 75.492188 -12.605469 75.492188 -35.390625 C 75.492188 -49.667969 68.503906 -61.519531 55.746094 -67.441406 Z M 55.746094 -67.441406 "/></g></g></g><path stroke-linecap="butt" transform="matrix(-2.158785, -0.000000000000000264, 0.000000000000000266, -2.169628, 375.447606, 114.710544)" fill="none" stroke-linejoin="miter" d="M -0.00074695 4.999597 L 84.432581 4.999597 " stroke="#00f6d8" stroke-width="10" stroke-opacity="1" stroke-miterlimit="4"/><path stroke-linecap="butt" transform="matrix(0.000000000000000132, -2.157704, 2.169628, 0.000000000000000133, 353.762441, 278.426876)" fill="none" stroke-linejoin="miter" d="M 0.000507422 4.999445 L 82.463002 4.999445 " stroke="#00f6d8" stroke-width="10" stroke-opacity="1" stroke-miterlimit="4"/><path stroke-linecap="butt" transform="matrix(2.158785, 0, 0, 2.169628, 1.580863, 256.75135)" fill="none" stroke-linejoin="miter" d="M 0.000541333 4.999156 L 84.43387 4.999156 " stroke="#00f6d8" stroke-width="10" stroke-opacity="1" stroke-miterlimit="4"/><path stroke-linecap="butt" transform="matrix(0.000000000000000132, 2.157704, -2.169628, 0.000000000000000133, 23.266016, 93.035055)" fill="none" stroke-linejoin="miter" d="M 0.0000466975 4.999958 L 82.462541 4.999958 " stroke="#00f6d8" stroke-width="10" stroke-opacity="1" stroke-miterlimit="4"/></svg>